# xmcd
#
# Track frame offsets:
#       150
#       13481
#       26834
#       42719
#       59853
#       75195
#       91447
#       105999
#       128449
#       142459
#       161604
#       174297
#
# Disc length: 2613 seconds
#
# Revision: 0
# Processed by: cddbd v1.4PL0 Copyright (c) Steve Scherf et al.
# Submitted via: CD-DA_X-Tractor v0.23
#
DISCID=a30a330c
DTITLE=Owen Temple  - Right Here And Now
DYEAR=2002
DGENRE=Country
TTITLE0=Accidentally Break My Heart
TTITLE1=Burning Too Hot Too Last
TTITLE2=Little Sweet Loss
TTITLE3=This Ain't Las Vegas
TTITLE4=No Daring Is Fatal
TTITLE5=Move Around Money
TTITLE6=For Old Times' Sake
TTITLE7=Before The Night Becomes The Dawn
TTITLE8=Trouble With You
TTITLE9=The Madder You Are (The Cuter You Get)
TTITLE10=Faith Without Works
TTITLE11=That's Not Something I Could Do
EXTD=
EXTT0=
EXTT1=
EXTT2=
EXTT3=
EXTT4=
EXTT5=
EXTT6=
EXTT7=
EXTT8=
EXTT9=
EXTT10=
EXTT11=
PLAYORDER=
